<svg xlink="http://www.w3.org/1999/xlink" viewBox="0 0 5000 5000" xmlns="http://www.w3.org/2000/svg" style="transform: scale(1);"><defs><filter id="goo"><feGaussianBlur in="SourceGraphic" stdDeviation="25" result="blur"></feGaussianBlur><feColorMatrix in="blur" type="matrix" values="1 0 0 0 0 0 1 0 0 0 0 0 1 0 0 0 0 0 19 -9" result="good"></feColorMatrix><feComposite in="SourceGraphic" in2="goo" operator="atop"></feComposite></filter><path d="M297,269C273,263 350,323 416,427C283,377 243,276 218,289C230,266 219,267 184,267C216,254 173,250 100,241C177,221 183,194 170,105C234,164 259,178 309,125C292,193 331,174 439,146C361,229 277,253 297,269z" id="P0"></path><path d="M228,79C267,161 297,165 385,123C322,190 329,192 420,157C350,231 322,259 375,309C305,296 303,323 324,407C261,341 236,325 188,381C206,310 199,298 139,331C182,272 150,250 66,203C169,191 201,173 228,79z" id="P1"></path><path d="M69,335C146,263 136,228 49,155C165,170 218,192 234,124C262,185 301,158 387,104C324,181 275,230 299,210C280,236 290,242 327,260C288,265 297,284 315,340C261,308 241,284 206,297C224,271 164,305 69,335z" id="P2"></path><path d="M147,270C196,247 159,221 95,152C185,181 203,164 192,71C232,156 247,209 260,170C271,212 321,192 415,197C340,244 310,261 356,300C295,292 267,280 258,315C248,284 243,278 229,303C231,273 203,280 147,270z" id="P3"></path><path d="M292,193C283,232 280,248 302,271C276,262 293,274 336,297C281,292 259,296 228,334C234,291 211,321 157,378C183,299 171,276 92,250C171,224 212,222 197,177C233,206 242,186 273,127C270,189 265,217 292,193z" id="P4"></path><path d="M149,155C208,192 236,219 238,185C254,216 291,163 383,125C330,200 336,216 424,205C344,250 281,258 306,276C275,271 302,322 313,408C250,340 217,334 141,382C178,302 183,276 114,276C178,241 184,219 149,155z" id="P5"></path><path d="M287,157C283,210 356,182 482,190C369,227 287,245 324,250C287,260 306,281 339,334C284,304 276,329 270,409C218,330 199,292 129,273C186,246 190,230 147,185C200,214 209,216 177,173C229,198 250,197 287,157z" id="P6"></path></defs><rect id="RECT" width="5000" height="5000" fill="#FFFFFF00"></rect><g id="group" fill="#13100F" filter="url(#goo)"><use x="-5" y="-4" href="#P0"></use><use x="-20" y="1" href="#P1"></use><use x="-9" y="24" href="#P6"></use><use x="-20" y="98" href="#P6"></use><use x="-61" y="142" href="#P0"></use><use x="-53" y="299" href="#P2"></use><use x="-64" y="398" href="#P2"></use><use x="-88" y="541" href="#P4"></use><use x="-36" y="816" href="#P1"></use><use x="-113" y="926" href="#P5"></use><use x="-101" y="1359" href="#P0"></use><use x="-173" y="1426" href="#P1"></use><use x="-91" y="1761" href="#P5"></use><use x="-234" y="2250" href="#P1"></use><use x="-239" y="2436" href="#P4"></use><use x="-583" y="2310" href="#P3"></use><use x="-593" y="2506" href="#P6"></use><use x="-701" y="2864" href="#P4"></use><use x="-774" y="3143" href="#P3"></use><use x="-719" y="3418" href="#P2"></use><use x="-821" y="3527" href="#P5"></use><use x="-809" y="3871" href="#P4"></use><use x="-705" y="4080" href="#P6"></use><use x="-734" y="4295" href="#P6"></use><use x="-766" y="4551" href="#P4"></use><use x="-712" y="4794" href="#P2"></use><use x="-564" y="5175" href="#P2"></use><use x="-474" y="5336" href="#P6"></use><use x="-543" y="5340" href="#P3"></use><use x="-3" y="-11" href="#P4"></use><use x="6" y="1" href="#P0"></use><use x="12" y="27" href="#P6"></use><use x="-4" y="98" href="#P4"></use><use x="2" y="172" href="#P1"></use><use x="-17" y="255" href="#P4"></use><use x="-21" y="421" href="#P2"></use><use x="2" y="466" href="#P6"></use><use x="34" y="814" href="#P5"></use><use x="4" y="990" href="#P0"></use><use x="85" y="1180" href="#P4"></use><use x="5" y="1449" href="#P1"></use><use x="77" y="1882" href="#P4"></use><use x="28" y="2199" href="#P0"></use><use x="-259" y="2139" href="#P4"></use><use x="-324" y="2246" href="#P5"></use><use x="-554" y="2667" href="#P3"></use><use x="-593" y="2827" href="#P6"></use><use x="-468" y="3095" href="#P6"></use><use x="-454" y="3162" href="#P0"></use><use x="-646" y="3537" href="#P6"></use><use x="-604" y="3936" href="#P2"></use><use x="-537" y="4293" href="#P5"></use><use x="-634" y="4421" href="#P3"></use><use x="-467" y="4641" href="#P2"></use><use x="-520" y="4833" href="#P4"></use><use x="-427" y="5162" href="#P5"></use><use x="-211" y="5463" href="#P5"></use><use x="-317" y="5529" href="#P6"></use><use x="26" y="-15" href="#P2"></use><use x="9" y="3" href="#P5"></use><use x="22" y="30" href="#P2"></use><use x="67" y="112" href="#P6"></use><use x="34" y="129" href="#P0"></use><use x="98" y="232" href="#P2"></use><use x="60" y="440" href="#P1"></use><use x="125" y="496" href="#P2"></use><use x="119" y="799" href="#P2"></use><use x="129" y="982" href="#P4"></use><use x="174" y="1207" href="#P3"></use><use x="179" y="1557" href="#P5"></use><use x="147" y="1711" href="#P5"></use><use x="219" y="2291" href="#P4"></use><use x="-90" y="2103" href="#P4"></use><use x="-235" y="2347" href="#P4"></use><use x="-140" y="2437" href="#P0"></use><use x="-366" y="2777" href="#P1"></use><use x="-333" y="3089" href="#P2"></use><use x="-297" y="3372" href="#P2"></use><use x="-388" y="3486" href="#P3"></use><use x="-373" y="4014" href="#P3"></use><use x="-429" y="4221" href="#P3"></use><use x="-364" y="4570" href="#P4"></use><use x="-371" y="4756" href="#P4"></use><use x="-261" y="5041" href="#P0"></use><use x="-132" y="5142" href="#P4"></use><use x="-222" y="5414" href="#P5"></use><use x="-8" y="5613" href="#P6"></use><use x="69" y="-40" href="#P1"></use><use x="99" y="0" href="#P3"></use><use x="57" y="25" href="#P3"></use><use x="140" y="118" href="#P3"></use><use x="95" y="157" href="#P3"></use><use x="141" y="336" href="#P2"></use><use x="225" y="458" href="#P0"></use><use x="240" y="666" href="#P4"></use><use x="184" y="673" href="#P6"></use><use x="308" y="1112" href="#P1"></use><use x="270" y="1167" href="#P6"></use><use x="352" y="1592" href="#P5"></use><use x="319" y="1730" href="#P6"></use><use x="420" y="2265" href="#P0"></use><use x="527" y="2390" href="#P1"></use><use x="109" y="2187" href="#P6"></use><use x="66" y="2379" href="#P1"></use><use x="-4" y="2794" href="#P3"></use><use x="-144" y="2932" href="#P2"></use><use x="35" y="3147" href="#P6"></use><use x="-144" y="3521" href="#P0"></use><use x="-41" y="3733" href="#P0"></use><use x="-140" y="4304" href="#P4"></use><use x="-22" y="4623" href="#P0"></use><use x="-20" y="4832" href="#P0"></use><use x="7" y="5085" href="#P2"></use><use x="24" y="5356" href="#P4"></use><use x="59" y="5522" href="#P0"></use><use x="82" y="5649" href="#P1"></use><use x="180" y="-31" href="#P5"></use><use x="170" y="-9" href="#P2"></use><use x="162" y="83" href="#P1"></use><use x="179" y="115" href="#P5"></use><use x="210" y="175" href="#P3"></use><use x="324" y="390" href="#P6"></use><use x="292" y="462" href="#P3"></use><use x="370" y="562" href="#P2"></use><use x="450" y="846" href="#P6"></use><use x="356" y="995" href="#P4"></use><use x="537" y="1422" href="#P2"></use><use x="461" y="1567" href="#P1"></use><use x="534" y="1995" href="#P5"></use><use x="570" y="2075" href="#P0"></use><use x="410" y="2032" href="#P4"></use><use x="359" y="2085" href="#P0"></use><use x="194" y="2346" href="#P6"></use><use x="281" y="2658" href="#P5"></use><use x="84" y="3020" href="#P4"></use><use x="201" y="3346" href="#P3"></use><use x="252" y="3396" href="#P4"></use><use x="91" y="3745" href="#P3"></use><use x="188" y="4181" href="#P5"></use><use x="124" y="4446" href="#P2"></use><use x="233" y="4923" href="#P2"></use><use x="210" y="5022" href="#P1"></use><use x="398" y="5285" href="#P5"></use><use x="317" y="5590" href="#P5"></use><use x="387" y="5738" href="#P5"></use><use x="262" y="-73" href="#P1"></use><use x="270" y="37" href="#P4"></use><use x="265" y="50" href="#P2"></use><use x="266" y="122" href="#P5"></use><use x="332" y="220" href="#P1"></use><use x="436" y="345" href="#P0"></use><use x="423" y="500" href="#P4"></use><use x="483" y="662" href="#P4"></use><use x="587" y="844" href="#P6"></use><use x="597" y="1148" href="#P0"></use><use x="598" y="1231" href="#P2"></use><use x="663" y="1493" href="#P4"></use><use x="802" y="1849" href="#P1"></use><use x="858" y="2285" href="#P4"></use><use x="625" y="1979" href="#P0"></use><use x="458" y="2215" href="#P2"></use><use x="577" y="2333" href="#P4"></use><use x="590" y="2538" href="#P2"></use><use x="634" y="2852" href="#P3"></use><use x="665" y="3066" href="#P0"></use><use x="582" y="3498" href="#P5"></use><use x="387" y="3927" href="#P0"></use><use x="457" y="4257" href="#P3"></use><use x="634" y="4429" href="#P0"></use><use x="563" y="4766" href="#P1"></use><use x="539" y="5219" href="#P0"></use><use x="499" y="5425" href="#P6"></use><use x="667" y="5587" href="#P3"></use><use x="768" y="5779" href="#P2"></use><use x="458" y="-42" href="#P4"></use><use x="445" y="6" href="#P0"></use><use x="484" y="131" href="#P0"></use><use x="461" y="164" href="#P1"></use><use x="459" y="298" href="#P3"></use><use x="594" y="426" href="#P6"></use><use x="652" y="627" href="#P6"></use><use x="588" y="685" href="#P6"></use><use x="626" y="924" href="#P1"></use><use x="768" y="1054" href="#P4"></use><use x="754" y="1318" href="#P3"></use><use x="956" y="1785" href="#P4"></use><use x="1063" y="2112" href="#P4"></use><use x="922" y="1777" href="#P2"></use><use x="882" y="1970" href="#P4"></use><use x="960" y="2097" href="#P4"></use><use x="897" y="2446" href="#P1"></use><use x="930" y="2603" href="#P3"></use><use x="999" y="2771" href="#P4"></use><use x="678" y="3057" href="#P5"></use><use x="955" y="3703" href="#P0"></use><use x="938" y="3767" href="#P4"></use><use x="841" y="4329" href="#P2"></use><use x="777" y="4524" href="#P0"></use><use x="820" y="4815" href="#P2"></use><use x="958" y="5248" href="#P5"></use><use x="861" y="5310" href="#P1"></use><use x="1005" y="5567" href="#P1"></use><use x="861" y="5825" href="#P0"></use><use x="525" y="-89" href="#P0"></use><use x="699" y="34" href="#P0"></use><use x="661" y="119" href="#P4"></use><use x="680" y="252" href="#P2"></use><use x="721" y="380" href="#P0"></use><use x="773" y="460" href="#P4"></use><use x="771" y="561" href="#P4"></use><use x="820" y="865" href="#P4"></use><use x="848" y="926" href="#P0"></use><use x="877" y="1136" href="#P1"></use><use x="1035" y="1488" href="#P5"></use><use x="1085" y="1706" href="#P4"></use><use x="1286" y="2095" href="#P3"></use><use x="1308" y="1746" href="#P4"></use><use x="1290" y="1942" href="#P3"></use><use x="1332" y="1997" href="#P0"></use><use x="1086" y="2435" href="#P0"></use><use x="1199" y="2692" href="#P1"></use><use x="1367" y="2861" href="#P1"></use><use x="1202" y="3345" href="#P6"></use><use x="1217" y="3530" href="#P5"></use><use x="1301" y="3866" href="#P6"></use><use x="1325" y="4343" href="#P3"></use><use x="1156" y="4734" href="#P0"></use><use x="1307" y="4971" href="#P1"></use><use x="1255" y="5238" href="#P4"></use><use x="1168" y="5477" href="#P4"></use><use x="1066" y="5553" href="#P3"></use><use x="1191" y="5754" href="#P0"></use><use x="811" y="-52" href="#P2"></use><use x="780" y="0" href="#P4"></use><use x="857" y="149" href="#P5"></use><use x="917" y="308" href="#P5"></use><use x="993" y="450" href="#P4"></use><use x="920" y="465" href="#P2"></use><use x="1015" y="737" href="#P5"></use><use x="959" y="755" href="#P4"></use><use x="1187" y="1016" href="#P2"></use><use x="1184" y="1307" href="#P4"></use><use x="1219" y="1573" href="#P2"></use><use x="1392" y="1898" href="#P2"></use><use x="1484" y="1592" href="#P3"></use><use x="1353" y="1762" href="#P3"></use><use x="1374" y="1823" href="#P6"></use><use x="1364" y="2136" href="#P3"></use><use x="1622" y="2243" href="#P3"></use><use x="1472" y="2567" href="#P2"></use><use x="1637" y="2975" href="#P1"></use><use x="1402" y="3224" href="#P3"></use><use x="1487" y="3383" href="#P1"></use><use x="1611" y="3727" href="#P3"></use><use x="1487" y="4261" href="#P6"></use><use x="1461" y="4542" href="#P6"></use><use x="1378" y="5000" href="#P6"></use><use x="1635" y="5088" href="#P3"></use><use x="1393" y="5414" href="#P4"></use><use x="1562" y="5607" href="#P6"></use><use x="1591" y="5740" href="#P6"></use><use x="1026" y="-61" href="#P0"></use><use x="1061" y="29" href="#P6"></use><use x="951" y="124" href="#P0"></use><use x="1063" y="254" href="#P3"></use><use x="1095" y="365" href="#P1"></use><use x="1141" y="615" href="#P1"></use><use x="1274" y="769" href="#P3"></use><use x="1201" y="948" href="#P3"></use><use x="1362" y="1202" href="#P6"></use><use x="1552" y="1433" href="#P1"></use><use x="1457" y="1721" href="#P3"></use><use x="1813" y="1480" href="#P1"></use><use x="1670" y="1544" href="#P5"></use><use x="1683" y="1707" href="#P0"></use><use x="1915" y="1934" href="#P6"></use><use x="1865" y="2067" href="#P0"></use><use x="1909" y="2233" href="#P4"></use><use x="1924" y="2733" href="#P4"></use><use x="1824" y="2861" href="#P2"></use><use x="1879" y="3375" href="#P2"></use><use x="2009" y="3395" href="#P3"></use><use x="1897" y="3741" href="#P6"></use><use x="1995" y="4330" href="#P0"></use><use x="1766" y="4520" href="#P6"></use><use x="1962" y="4887" href="#P2"></use><use x="1930" y="5088" href="#P0"></use><use x="1970" y="5227" href="#P6"></use><use x="1739" y="5593" href="#P6"></use><use x="1835" y="5720" href="#P5"></use><use x="1399" y="-80" href="#P1"></use><use x="1334" y="-4" href="#P3"></use><use x="1190" y="130" href="#P6"></use><use x="1382" y="261" href="#P4"></use><use x="1373" y="467" href="#P4"></use><use x="1449" y="601" href="#P4"></use><use x="1362" y="769" href="#P1"></use><use x="1596" y="1104" href="#P4"></use><use x="1716" y="1331" href="#P4"></use><use x="1861" y="1521" href="#P6"></use><use x="1855" y="1408" href="#P5"></use><use x="2014" y="1511" href="#P0"></use><use x="1969" y="1600" href="#P1"></use><use x="2017" y="1766" href="#P0"></use><use x="2159" y="1964" href="#P0"></use><use x="2174" y="2084" href="#P0"></use><use x="1989" y="2265" href="#P1"></use><use x="2157" y="2742" href="#P5"></use><use x="2106" y="2958" href="#P3"></use><use x="2260" y="3295" href="#P2"></use><use x="2130" y="3577" href="#P4"></use><use x="2346" y="3832" href="#P0"></use><use x="2227" y="4079" href="#P5"></use><use x="2294" y="4381" href="#P4"></use><use x="2220" y="4818" href="#P1"></use><use x="2282" y="5033" href="#P3"></use><use x="1980" y="5409" href="#P5"></use><use x="2004" y="5507" href="#P6"></use><use x="1948" y="5713" href="#P2"></use><use x="1763" y="-57" href="#P1"></use><use x="1473" y="-26" href="#P0"></use><use x="1556" y="128" href="#P2"></use><use x="1537" y="262" href="#P2"></use><use x="1662" y="452" href="#P3"></use><use x="1727" y="648" href="#P4"></use><use x="1723" y="889" href="#P2"></use><use x="1938" y="1176" href="#P6"></use><use x="1824" y="1261" href="#P3"></use><use x="2032" y="1382" href="#P6"></use><use x="2108" y="1461" href="#P3"></use><use x="2248" y="1541" href="#P3"></use><use x="2236" y="1680" href="#P3"></use><use x="2209" y="1744" href="#P3"></use><use x="2355" y="1996" href="#P2"></use><use x="2478" y="2221" href="#P2"></use><use x="2408" y="2346" href="#P0"></use><use x="2501" y="2569" href="#P0"></use><use x="2621" y="2921" href="#P0"></use><use x="2476" y="3402" href="#P4"></use><use x="2522" y="3602" href="#P3"></use><use x="2495" y="3759" href="#P4"></use><use x="2512" y="4356" href="#P4"></use><use x="2440" y="4499" href="#P1"></use><use x="2548" y="4715" href="#P5"></use><use x="2358" y="5033" href="#P6"></use><use x="2402" y="5350" href="#P2"></use><use x="2409" y="5394" href="#P3"></use><use x="2290" y="5664" href="#P1"></use><use x="2006" y="-203" href="#P6"></use><use x="1856" y="101" href="#P0"></use><use x="2017" y="175" href="#P6"></use><use x="2115" y="428" href="#P4"></use><use x="2070" y="645" href="#P1"></use><use x="1919" y="784" href="#P0"></use><use x="2089" y="953" href="#P4"></use><use x="1622" y="1181" href="#P3"></use><use x="1618" y="1371" href="#P6"></use><use x="2175" y="1421" href="#P2"></use><use x="2354" y="1521" href="#P6"></use><use x="2265" y="1539" href="#P4"></use><use x="2335" y="1685" href="#P2"></use><use x="2534" y="1864" href="#P4"></use><use x="2472" y="2060" href="#P6"></use><use x="2723" y="2262" href="#P2"></use><use x="2723" y="2399" href="#P4"></use><use x="2834" y="2855" href="#P1"></use><use x="2667" y="3045" href="#P1"></use><use x="2680" y="3338" href="#P0"></use><use x="2851" y="3564" href="#P2"></use><use x="2845" y="3923" href="#P1"></use><use x="2749" y="4158" href="#P2"></use><use x="2792" y="4450" href="#P0"></use><use x="2637" y="4646" href="#P3"></use><use x="2754" y="5020" href="#P6"></use><use x="2568" y="5320" href="#P2"></use><use x="2664" y="5361" href="#P2"></use><use x="2517" y="5597" href="#P0"></use><use x="2347" y="-187" href="#P6"></use><use x="2151" y="-48" href="#P5"></use><use x="2377" y="240" href="#P6"></use><use x="2210" y="480" href="#P6"></use><use x="2313" y="660" href="#P5"></use><use x="1897" y="471" href="#P6"></use><use x="1734" y="786" href="#P3"></use><use x="1804" y="1072" href="#P6"></use><use x="1717" y="1445" href="#P1"></use><use x="2422" y="1541" href="#P5"></use><use x="2460" y="1604" href="#P1"></use><use x="2512" y="1691" href="#P3"></use><use x="2600" y="1827" href="#P1"></use><use x="2803" y="2025" href="#P2"></use><use x="2739" y="2169" href="#P6"></use><use x="2927" y="2360" href="#P6"></use><use x="2876" y="2508" href="#P3"></use><use x="2916" y="2663" href="#P1"></use><use x="3046" y="3011" href="#P4"></use><use x="2915" y="3299" href="#P3"></use><use x="3029" y="3726" href="#P2"></use><use x="2947" y="4007" href="#P3"></use><use x="3047" y="4111" href="#P6"></use><use x="3056" y="4310" href="#P5"></use><use x="2976" y="4619" href="#P5"></use><use x="2904" y="4975" href="#P3"></use><use x="2716" y="5292" href="#P4"></use><use x="2790" y="5311" href="#P4"></use><use x="2712" y="5482" href="#P0"></use><use x="2164" y="-442" href="#P1"></use><use x="2209" y="-369" href="#P2"></use><use x="2053" y="-98" href="#P3"></use><use x="2201" y="41" href="#P6"></use><use x="1982" y="396" href="#P6"></use><use x="2055" y="466" href="#P0"></use><use x="1944" y="772" href="#P0"></use><use x="2029" y="1213" href="#P5"></use><use x="2032" y="1337" href="#P4"></use><use x="1920" y="1732" href="#P3"></use><use x="2046" y="1863" href="#P5"></use><use x="2823" y="1823" href="#P1"></use><use x="2876" y="1904" href="#P0"></use><use x="2923" y="2083" href="#P6"></use><use x="3010" y="2221" href="#P3"></use><use x="3057" y="2404" href="#P4"></use><use x="3076" y="2653" href="#P5"></use><use x="3130" y="2820" href="#P1"></use><use x="3228" y="3037" href="#P1"></use><use x="3103" y="3194" href="#P0"></use><use x="3296" y="3676" href="#P3"></use><use x="3244" y="3931" href="#P0"></use><use x="3253" y="4196" href="#P0"></use><use x="2670" y="4258" href="#P3"></use><use x="2608" y="4448" href="#P3"></use><use x="2570" y="4654" href="#P4"></use><use x="2548" y="4823" href="#P5"></use><use x="2609" y="4921" href="#P2"></use><use x="2796" y="5187" href="#P6"></use><use x="2423" y="-623" href="#P0"></use><use x="2448" y="-375" href="#P5"></use><use x="2413" y="-233" href="#P3"></use><use x="2255" y="-51" href="#P2"></use><use x="2224" y="326" href="#P6"></use><use x="2214" y="422" href="#P6"></use><use x="2106" y="928" href="#P0"></use><use x="2224" y="986" href="#P6"></use><use x="2113" y="1509" href="#P0"></use><use x="2209" y="1749" href="#P4"></use><use x="2263" y="1963" href="#P4"></use><use x="2874" y="1859" href="#P6"></use><use x="3018" y="2027" href="#P3"></use><use x="3104" y="2138" href="#P5"></use><use x="3151" y="2308" href="#P1"></use><use x="3238" y="2511" href="#P6"></use><use x="3179" y="2572" href="#P0"></use><use x="3310" y="2904" href="#P4"></use><use x="3351" y="3134" href="#P6"></use><use x="3345" y="3375" href="#P3"></use><use x="3345" y="3664" href="#P4"></use><use x="2858" y="3915" href="#P0"></use><use x="2947" y="4057" href="#P0"></use><use x="2983" y="4352" href="#P6"></use><use x="2826" y="4402" href="#P1"></use><use x="2866" y="4700" href="#P0"></use><use x="3128" y="4734" href="#P1"></use><use x="3068" y="4924" href="#P2"></use><use x="3021" y="5195" href="#P2"></use><use x="2697" y="-729" href="#P2"></use><use x="2565" y="-417" href="#P1"></use><use x="2485" y="-173" href="#P1"></use><use x="2558" y="-116" href="#P1"></use><use x="2535" y="288" href="#P1"></use><use x="2550" y="483" href="#P3"></use><use x="2503" y="796" href="#P1"></use><use x="2366" y="1094" href="#P2"></use><use x="2425" y="1329" href="#P4"></use><use x="2614" y="1784" href="#P3"></use><use x="2414" y="2082" href="#P4"></use><use x="2940" y="1895" href="#P4"></use><use x="3071" y="2079" href="#P5"></use><use x="3187" y="2206" href="#P2"></use><use x="3260" y="2299" href="#P2"></use><use x="3353" y="2493" href="#P6"></use><use x="3410" y="2753" href="#P3"></use><use x="3385" y="2937" href="#P3"></use><use x="3483" y="3072" href="#P4"></use><use x="3544" y="3328" href="#P5"></use><use x="3127" y="3728" href="#P1"></use><use x="3267" y="3952" href="#P4"></use><use x="3249" y="4098" href="#P4"></use><use x="3274" y="4240" href="#P2"></use><use x="3236" y="4417" href="#P1"></use><use x="3509" y="4666" href="#P6"></use><use x="3255" y="4758" href="#P0"></use><use x="3278" y="5037" href="#P3"></use><use x="3515" y="5109" href="#P4"></use><use x="3000" y="-651" href="#P3"></use><use x="3034" y="-603" href="#P6"></use><use x="2894" y="-423" href="#P4"></use><use x="3001" y="-161" href="#P2"></use><use x="2772" y="63" href="#P4"></use><use x="2759" y="571" href="#P1"></use><use x="2722" y="747" href="#P0"></use><use x="2885" y="1116" href="#P4"></use><use x="2815" y="1604" href="#P3"></use><use x="2651" y="1674" href="#P6"></use><use x="2839" y="2210" href="#P0"></use><use x="2873" y="2494" href="#P6"></use><use x="2959" y="2752" href="#P3"></use><use x="3248" y="2247" href="#P3"></use><use x="3362" y="2455" href="#P3"></use><use x="3466" y="2656" href="#P5"></use><use x="3516" y="2805" href="#P4"></use><use x="3532" y="2970" href="#P1"></use><use x="3566" y="3145" href="#P1"></use><use x="3344" y="3618" href="#P0"></use><use x="3432" y="3881" href="#P6"></use><use x="3426" y="4020" href="#P5"></use><use x="3567" y="4130" href="#P4"></use><use x="3485" y="4363" href="#P5"></use><use x="3706" y="4552" href="#P4"></use><use x="3564" y="4622" href="#P0"></use><use x="3743" y="4911" href="#P5"></use><use x="3592" y="5023" href="#P5"></use><use x="3671" y="5160" href="#P2"></use><use x="3109" y="-788" href="#P4"></use><use x="3280" y="-533" href="#P1"></use><use x="3051" y="-328" href="#P4"></use><use x="3176" y="-57" href="#P0"></use><use x="3074" y="256" href="#P6"></use><use x="3091" y="354" href="#P0"></use><use x="3079" y="615" href="#P0"></use><use x="2940" y="1097" href="#P3"></use><use x="3227" y="1389" href="#P3"></use><use x="3133" y="1740" href="#P2"></use><use x="3266" y="2192" href="#P6"></use><use x="3206" y="2531" href="#P6"></use><use x="3160" y="2751" href="#P0"></use><use x="3211" y="2822" href="#P2"></use><use x="3374" y="2431" href="#P2"></use><use x="3485" y="2654" href="#P3"></use><use x="3541" y="2804" href="#P0"></use><use x="3603" y="3017" href="#P5"></use><use x="3345" y="3257" href="#P6"></use><use x="3615" y="3600" href="#P6"></use><use x="3711" y="3784" href="#P2"></use><use x="3860" y="4192" href="#P1"></use><use x="3645" y="4166" href="#P2"></use><use x="3890" y="4416" href="#P5"></use><use x="3895" y="4543" href="#P0"></use><use x="3989" y="4677" href="#P6"></use><use x="3982" y="4882" href="#P5"></use><use x="3848" y="4948" href="#P3"></use><use x="3886" y="5056" href="#P0"></use><use x="3400" y="-685" href="#P1"></use><use x="3464" y="-607" href="#P2"></use><use x="3512" y="-294" href="#P0"></use><use x="3578" y="-114" href="#P4"></use><use x="3477" y="150" href="#P3"></use><use x="3401" y="303" href="#P0"></use><use x="3509" y="689" href="#P4"></use><use x="3502" y="1240" href="#P2"></use><use x="3542" y="1622" href="#P6"></use><use x="3566" y="1894" href="#P0"></use><use x="3583" y="2031" href="#P4"></use><use x="3625" y="2390" href="#P5"></use><use x="3471" y="2671" href="#P6"></use><use x="3430" y="2799" href="#P0"></use><use x="3405" y="3086" href="#P4"></use><use x="3535" y="2711" href="#P3"></use><use x="3547" y="2791" href="#P5"></use><use x="3645" y="3063" href="#P1"></use><use x="3813" y="3478" href="#P3"></use><use x="3804" y="3646" href="#P0"></use><use x="3923" y="3873" href="#P1"></use><use x="3943" y="4066" href="#P6"></use><use x="4110" y="4367" href="#P6"></use><use x="4106" y="4498" href="#P5"></use><use x="4110" y="4652" href="#P0"></use><use x="4029" y="4688" href="#P2"></use><use x="4161" y="4890" href="#P5"></use><use x="4157" y="5010" href="#P3"></use><use x="4250" y="5082" href="#P0"></use><use x="3709" y="-838" href="#P0"></use><use x="3643" y="-600" href="#P3"></use><use x="3834" y="-422" href="#P5"></use><use x="3737" y="-114" href="#P4"></use><use x="3946" y="268" href="#P3"></use><use x="3790" y="525" href="#P1"></use><use x="3648" y="878" href="#P5"></use><use x="3677" y="1054" href="#P2"></use><use x="3659" y="1580" href="#P4"></use><use x="3820" y="1825" href="#P3"></use><use x="3790" y="2131" href="#P3"></use><use x="3629" y="2428" href="#P2"></use><use x="3758" y="2776" href="#P0"></use><use x="3761" y="2892" href="#P6"></use><use x="3814" y="3184" href="#P0"></use><use x="3867" y="3236" href="#P5"></use><use x="3912" y="3067" href="#P4"></use><use x="3809" y="3143" href="#P5"></use><use x="3905" y="3445" href="#P0"></use><use x="4002" y="3692" href="#P1"></use><use x="4172" y="4007" href="#P4"></use><use x="4201" y="4270" href="#P5"></use><use x="4281" y="4418" href="#P0"></use><use x="4299" y="4534" href="#P1"></use><use x="4225" y="4618" href="#P4"></use><use x="4266" y="4730" href="#P4"></use><use x="4381" y="4915" href="#P4"></use><use x="4379" y="4967" href="#P3"></use><use x="4381" y="5065" href="#P0"></use><use x="3966" y="-737" href="#P4"></use><use x="3982" y="-643" href="#P4"></use><use x="3954" y="-460" href="#P1"></use><use x="4084" y="-86" href="#P1"></use><use x="3981" y="43" href="#P0"></use><use x="4320" y="447" href="#P3"></use><use x="4225" y="844" href="#P5"></use><use x="4241" y="1021" href="#P6"></use><use x="4124" y="1319" href="#P1"></use><use x="4306" y="1730" href="#P5"></use><use x="4148" y="2055" href="#P1"></use><use x="4024" y="2496" href="#P1"></use><use x="3996" y="2722" href="#P0"></use><use x="4117" y="3005" href="#P5"></use><use x="4208" y="3182" href="#P1"></use><use x="3957" y="3327" href="#P5"></use><use x="4105" y="3036" href="#P6"></use><use x="3996" y="3239" href="#P6"></use><use x="4230" y="3692" href="#P2"></use><use x="4335" y="3935" href="#P5"></use><use x="4369" y="4155" href="#P6"></use><use x="4459" y="4388" href="#P0"></use><use x="4424" y="4396" href="#P4"></use><use x="4413" y="4612" href="#P5"></use><use x="4497" y="4762" href="#P5"></use><use x="4605" y="4861" href="#P0"></use><use x="4613" y="4918" href="#P6"></use><use x="4514" y="4971" href="#P2"></use><use x="4583" y="5043" href="#P0"></use><use x="4424" y="-648" href="#P0"></use><use x="4473" y="-468" href="#P5"></use><use x="4529" y="-268" href="#P0"></use><use x="4563" y="-5" href="#P2"></use><use x="4482" y="255" href="#P0"></use><use x="4499" y="461" href="#P2"></use><use x="4641" y="715" href="#P3"></use><use x="4371" y="1131" href="#P3"></use><use x="4453" y="1414" href="#P6"></use><use x="4638" y="1699" href="#P0"></use><use x="4557" y="2139" href="#P4"></use><use x="4378" y="2284" href="#P4"></use><use x="4508" y="2532" href="#P4"></use><use x="4260" y="2897" href="#P3"></use><use x="4432" y="3097" href="#P4"></use><use x="4191" y="2748" href="#P4"></use><use x="4227" y="3038" href="#P1"></use><use x="4404" y="3479" href="#P3"></use><use x="4378" y="3602" href="#P1"></use><use x="4322" y="3775" href="#P5"></use><use x="4432" y="4071" href="#P2"></use><use x="4443" y="4251" href="#P1"></use><use x="4626" y="4474" href="#P4"></use><use x="4578" y="4678" href="#P3"></use><use x="4726" y="4797" href="#P4"></use><use x="4706" y="4866" href="#P5"></use><use x="4700" y="4934" href="#P3"></use><use x="4762" y="4976" href="#P3"></use><use x="4767" y="5056" href="#P4"></use><use x="4695" y="-614" href="#P1"></use><use x="4733" y="-576" href="#P3"></use><use x="4771" y="-387" href="#P1"></use><use x="4655" y="-9" href="#P3"></use><use x="4749" y="102" href="#P6"></use><use x="4707" y="424" href="#P6"></use><use x="4822" y="853" href="#P6"></use><use x="4959" y="1259" href="#P6"></use><use x="4925" y="1589" href="#P1"></use><use x="4882" y="1749" href="#P0"></use><use x="4905" y="2177" href="#P3"></use><use x="4712" y="2401" href="#P3"></use><use x="4677" y="2579" href="#P4"></use><use x="4537" y="2966" href="#P3"></use><use x="4752" y="2957" href="#P2"></use><use x="4391" y="2772" href="#P0"></use><use x="4362" y="2986" href="#P0"></use><use x="4400" y="3332" href="#P0"></use><use x="4534" y="3795" href="#P0"></use><use x="4583" y="3992" href="#P5"></use><use x="4587" y="4205" href="#P2"></use><use x="4650" y="4392" href="#P6"></use><use x="4768" y="4625" href="#P5"></use><use x="4698" y="4680" href="#P5"></use><use x="4764" y="4802" href="#P6"></use><use x="4829" y="4906" href="#P4"></use><use x="4800" y="4947" href="#P6"></use><use x="4860" y="4982" href="#P0"></use><use x="4875" y="5046" href="#P2"></use><use x="4936" y="-657" href="#P4"></use><use x="4982" y="-485" href="#P1"></use><use x="4909" y="-300" href="#P1"></use><use x="5005" y="-43" href="#P6"></use><use x="5123" y="342" href="#P3"></use><use x="5151" y="535" href="#P5"></use><use x="5124" y="898" href="#P4"></use><use x="5025" y="1209" href="#P3"></use><use x="5043" y="1416" href="#P4"></use><use x="5093" y="1614" href="#P6"></use><use x="5168" y="2143" href="#P1"></use><use x="4952" y="2414" href="#P6"></use><use x="4913" y="2590" href="#P2"></use><use x="4936" y="2780" href="#P0"></use><use x="4635" y="2629" href="#P4"></use><use x="4545" y="2690" href="#P6"></use><use x="4624" y="3096" href="#P1"></use><use x="4558" y="3342" href="#P1"></use><use x="4694" y="3625" href="#P3"></use><use x="4723" y="3950" href="#P6"></use><use x="4772" y="4282" href="#P6"></use><use x="4755" y="4426" href="#P1"></use><use x="4759" y="4499" href="#P1"></use><use x="4844" y="4720" href="#P4"></use><use x="4854" y="4849" href="#P4"></use><use x="4916" y="4899" href="#P4"></use><use x="4906" y="4962" href="#P0"></use><use x="4923" y="4978" href="#P1"></use><use x="4923" y="5024" href="#P5"></use><use x="5120" y="-608" href="#P2"></use><use x="5038" y="-510" href="#P0"></use><use x="5197" y="-131" href="#P6"></use><use x="5277" y="12" href="#P2"></use><use x="5264" y="149" href="#P4"></use><use x="5306" y="500" href="#P5"></use><use x="5377" y="915" href="#P5"></use><use x="5396" y="1199" href="#P0"></use><use x="5258" y="1353" href="#P1"></use><use x="5372" y="1760" href="#P6"></use><use x="5251" y="1888" href="#P4"></use><use x="5206" y="2376" href="#P3"></use><use x="5219" y="2510" href="#P2"></use><use x="5300" y="2686" href="#P0"></use><use x="4823" y="2607" href="#P6"></use><use x="4729" y="2749" href="#P0"></use><use x="4755" y="3116" href="#P3"></use><use x="4774" y="3491" href="#P6"></use><use x="4835" y="3779" href="#P6"></use><use x="4805" y="3936" href="#P0"></use><use x="4914" y="4195" href="#P6"></use><use x="4915" y="4358" href="#P4"></use><use x="4856" y="4538" href="#P5"></use><use x="4944" y="4750" href="#P2"></use><use x="4932" y="4834" href="#P0"></use><use x="4938" y="4931" href="#P1"></use><use x="4977" y="4973" href="#P5"></use><use x="4965" y="4990" href="#P2"></use><use x="4955" y="5022" href="#P5"></use><use x="5228" y="-495" href="#P3"></use><use x="5342" y="-426" href="#P5"></use><use x="5367" y="-162" href="#P5"></use><use x="5432" y="126" href="#P6"></use><use x="5498" y="365" href="#P1"></use><use x="5446" y="530" href="#P0"></use><use x="5641" y="949" href="#P5"></use><use x="5601" y="996" href="#P0"></use><use x="5557" y="1330" href="#P5"></use><use x="5586" y="1572" href="#P2"></use><use x="5510" y="1943" href="#P3"></use><use x="5546" y="2130" href="#P4"></use><use x="5524" y="2451" href="#P6"></use><use x="5319" y="2732" href="#P4"></use><use x="5274" y="2883" href="#P5"></use><use x="4907" y="2839" href="#P1"></use><use x="4976" y="3270" href="#P0"></use><use x="4960" y="3595" href="#P6"></use><use x="4942" y="3838" href="#P5"></use><use x="4985" y="4093" href="#P6"></use><use x="4983" y="4344" href="#P1"></use><use x="5023" y="4490" href="#P4"></use><use x="4999" y="4661" href="#P1"></use><use x="4984" y="4763" href="#P0"></use><use x="4996" y="4882" href="#P3"></use><use x="4985" y="4945" href="#P3"></use><use x="5002" y="4975" href="#P0"></use><use x="4996" y="5002" href="#P0"></use><use x="4987" y="5021" href="#P2"></use><use x="5476" y="-454" href="#P2"></use><use x="5508" y="-335" href="#P6"></use><use x="5551" y="-119" href="#P5"></use><use x="5695" y="244" href="#P0"></use><use x="5695" y="297" href="#P6"></use><use x="5780" y="554" href="#P1"></use><use x="5673" y="789" href="#P6"></use><use x="5685" y="1104" href="#P6"></use><use x="5681" y="1360" href="#P6"></use><use x="5809" y="1650" href="#P2"></use><use x="5774" y="1972" href="#P6"></use><use x="5632" y="2121" href="#P0"></use><use x="5694" y="2428" href="#P6"></use><use x="5587" y="2698" href="#P1"></use><use x="5459" y="2815" href="#P6"></use><use x="5224" y="2892" href="#P1"></use><use x="5137" y="3122" href="#P2"></use><use x="5109" y="3488" href="#P1"></use><use x="5162" y="3791" href="#P2"></use><use x="5040" y="4015" href="#P5"></use><use x="5146" y="4147" href="#P4"></use><use x="5060" y="4518" href="#P5"></use><use x="5039" y="4606" href="#P0"></use><use x="5020" y="4692" href="#P2"></use><use x="5035" y="4870" href="#P0"></use><use x="5041" y="4908" href="#P0"></use><use x="5015" y="4981" href="#P6"></use><use x="5003" y="4995" href="#P1"></use><use x="5023" y="5012" href="#P0"></use></g></svg>