<?xml version="1.0" standalone="no"?><svg xmlns="http://www.w3.org/2000/svg" viewBox="0 0 1440 320"><path fill="#160D0D" fill-opacity="1" d="M0,64L15,80C30,96,60,128,90,154.7C120,181,150,203,180,202.7C210,203,240,181,270,176C300,171,330,181,360,197.3C390,213,420,235,450,208C480,181,510,107,540,112C570,117,600,203,630,240C660,277,690,267,720,229.3C750,192,780,128,810,138.7C840,149,870,235,900,250.7C930,267,960,213,990,213.3C1020,213,1050,267,1080,240C1110,213,1140,107,1170,101.3C1200,96,1230,192,1260,202.7C1290,213,1320,139,1350,101.3C1380,64,1410,64,1425,64L1440,64L1440,320L1425,320C1410,320,1380,320,1350,320C1320,320,1290,320,1260,320C1230,320,1200,320,1170,320C1140,320,1110,320,1080,320C1050,320,1020,320,990,320C960,320,930,320,900,320C870,320,840,320,810,320C780,320,750,320,720,320C690,320,660,320,630,320C600,320,570,320,540,320C510,320,480,320,450,320C420,320,390,320,360,320C330,320,300,320,270,320C240,320,210,320,180,320C150,320,120,320,90,320C60,320,30,320,15,320L0,320Z"></path></svg>