<?xml version="1.0" standalone="no"?><svg xmlns="http://www.w3.org/2000/svg" viewBox="0 0 1440 320"><path fill="#160D0D" fill-opacity="1" d="M0,160L10.4,133.3C20.9,107,42,53,63,64C83.5,75,104,149,125,192C146.1,235,167,245,188,218.7C208.7,192,230,128,250,101.3C271.3,75,292,85,313,106.7C333.9,128,355,160,376,170.7C396.5,181,417,171,438,138.7C459.1,107,480,53,501,48C521.7,43,543,85,563,90.7C584.3,96,605,64,626,80C647,96,668,160,689,170.7C709.6,181,730,139,751,106.7C772.2,75,793,53,814,69.3C834.8,85,856,139,877,144C897.4,149,918,107,939,117.3C960,128,981,192,1002,181.3C1022.6,171,1043,85,1064,64C1085.2,43,1106,85,1127,117.3C1147.8,149,1169,171,1190,202.7C1210.4,235,1231,277,1252,282.7C1273,288,1294,256,1315,218.7C1335.7,181,1357,139,1377,149.3C1398.3,160,1419,224,1430,256L1440,288L1440,320L1429.6,320C1419.1,320,1398,320,1377,320C1356.5,320,1336,320,1315,320C1293.9,320,1273,320,1252,320C1231.3,320,1210,320,1190,320C1168.7,320,1148,320,1127,320C1106.1,320,1085,320,1064,320C1043.5,320,1023,320,1002,320C980.9,320,960,320,939,320C918.3,320,897,320,877,320C855.7,320,835,320,814,320C793,320,772,320,751,320C730.4,320,710,320,689,320C667.8,320,647,320,626,320C605.2,320,584,320,563,320C542.6,320,522,320,501,320C480,320,459,320,438,320C417.4,320,397,320,376,320C354.8,320,334,320,313,320C292.2,320,271,320,250,320C229.6,320,209,320,188,320C167,320,146,320,125,320C104.3,320,83,320,63,320C41.7,320,21,320,10,320L0,320Z"></path></svg>