<svg xlink="http://www.w3.org/1999/xlink" viewBox="0 0 5000 5000" xmlns="http://www.w3.org/2000/svg" style="transform: scale(1);"><defs><filter id="goo"><feGaussianBlur in="SourceGraphic" stdDeviation="25" result="blur"></feGaussianBlur><feColorMatrix in="blur" type="matrix" values="1 0 0 0 0 0 1 0 0 0 0 0 1 0 0 0 0 0 19 -9" result="good"></feColorMatrix><feComposite in="SourceGraphic" in2="goo" operator="atop"></feComposite></filter><path d="M280,248L276,264C256,284 228,276 220,248C235,245 237,242 231,227C251,233 262,238 280,248z" id="P0"></path><path d="M216,234L262,214Q294,214 288,245Q296,284 255,288C227,286 210,263 216,234z" id="P1"></path><path d="M227,254C227,241 235,230 247,227L265,232L260,271L227,254z" id="P2"></path><path d="M190,231C201,204 225,187 250,187C279,189 302,207 310,231C317,258 307,286 287,301C263,316 233,315 213,301C191,282 183,254 190,231z" id="P3"></path><path d="M348,368L100,279L306,108L348,368z" id="P4"></path><path d="M237,319C223,317 146,414 112,379C78,345 152,275 153,256C151,225 173,201 199,180C207,172 192,103 202,103C250,87 314,52 356,83C410,117 392,194 395,241C398,278 359,301 339,324C309,358 259,324 237,319z" id="P5"></path><path d="M404,269L341,375L137,144L151,131L404,269z" id="P6"></path><path d="M322,350C258,316 226,312 150,322L178,150C233,118 299,126 350,178Q433,273 322,350z" id="P7"></path><path d="M275,230L236,279C221,269 215,250 223,233C225,229 228,226 231,224C248,233 256,234 275,230z" id="P8"></path><path d="M265,222C266,243 267,253 272,273L262,280C241,284 223,272 218,250C223,227 243,215 265,222z" id="P9"></path><path d="M214,257Q223,201 274,221C266,240 269,245 287,255C276,282 247,291 225,277Q201,277 214,257z" id="P10"></path><path d="M271,304C246,312 220,304 205,287C190,265 189,238 201,219C217,198 242,188 264,194C290,202 306,224 308,246C308,273 292,295 271,304z" id="P11"></path><path d="M131,227L327,157L287,365L131,227z" id="P12"></path><path d="M211,403C171,394 142,365 122,331C92,280 169,235 184,208C189,199 137,130 163,113C218,81 285,67 353,108C373,119 380,143 395,171C416,207 354,250 345,281C340,300 313,303 305,308C286,326 271,415 211,403z" id="P13"></path><path d="M350,263L299,339L172,186L176,181L350,263z" id="P14"></path><path d="M329,335C281,371 219,371 165,329C189,266 189,234 171,165C219,129 281,129 335,171L329,335z" id="P15"></path><path d="M243,212L288,243Q299,281 260,288C240,291 221,281 212,260C230,243 236,234 243,212z" id="P16"></path><path d="M278,245L264,275C251,265 244,264 230,271Q209,237 248,221L278,245z" id="P17"></path><path d="M222,245C236,244 238,240 232,228Q261,208 278,241C280,262 266,278 246,279Q213,273 222,245z" id="P18"></path><path d="M188,242C194,214 214,194 238,189C266,186 292,199 304,220C316,246 312,274 295,292C274,312 246,316 224,306C199,292 186,266 188,242z" id="P19"></path><path d="M106,307L269,96L369,349L106,307z" id="P20"></path><path d="M134,186C161,142 196,83 260,84C303,86 328,127 346,148C353,153 301,208 301,208C317,228 374,258 353,306C339,333 330,376 303,383C259,400 213,394 174,370C158,362 138,355 123,330C94,280 113,224 134,186z" id="P21"></path><path d="M173,230L180,211L329,260L312,301L173,230z" id="P22"></path><path d="M366,110L390,366Q284,521 134,390C67,322 55,225 110,134Q216,-21 366,110z" id="P23"></path><path d="M214,243Q205,217 232,218L287,248L230,281Q200,274 214,243z" id="P24"></path><path d="M224,275C231,254 232,243 227,222L283,237C288,252 284,269 269,280Q243,304 224,275z" id="P25"></path><path d="M228,219C246,230 255,230 276,222Q307,254 276,278C263,289 245,290 228,281C230,256 230,244 228,219z" id="P26"></path><path d="M239,295C219,288 205,271 204,253C204,232 216,214 233,207C253,201 274,207 285,221C298,238 298,259 289,275C276,292 256,299 239,295z" id="P27"></path><path d="M115,215L345,149L285,385L115,215z" id="P28"></path><path d="M234,189C242,186 250,182 254,183C272,184 299,173 314,190C334,211 336,239 332,260C327,292 347,367 303,383C269,398 242,313 231,308C224,306 167,380 154,366C104,319 133,250 149,210C162,177 215,194 234,189z" id="P29"></path><path d="M287,343L269,348L166,196L244,150L287,343z" id="P30"></path><path d="M328,344Q239,433 156,328C185,262 187,230 172,156C225,121 291,125 344,172L328,344z" id="P31"></path><path d="M281,250L254,281L225,232C236,220 252,217 267,224L281,250z" id="P32"></path><path d="M250,224L273,263Q250,289 229,265L224,245L250,224z" id="P33"></path><path d="M214,243C218,227 231,215 248,213C281,221 292,255 272,280C255,290 235,287 221,274C232,257 231,251 214,243z" id="P34"></path><path d="M226,287C210,275 203,256 207,239C214,220 230,207 247,206C267,206 284,218 291,234C297,253 291,273 278,284C262,296 241,296 226,287z" id="P35"></path><path d="M69,250L337,91L337,409L69,250z" id="P36"></path><path d="M444,200C452,224 381,250 376,274C370,307 408,381 356,416C289,455 223,390 171,358C156,350 98,375 87,353C49,288 64,214 105,145C140,98 225,172 250,172C270,171 278,199 288,209C297,216 436,162 444,200z" id="P37"></path><path d="M144,216L185,160L344,309L315,340L144,216z" id="P38"></path><path d="M384,233Q414,369 267,384C223,318 194,296 116,267C182,223 204,194 233,116C277,182 306,204 384,233z" id="P39"></path></defs><rect id="RECT" width="5000" height="5000" fill="#FFFFFF00"></rect><g id="group" fill="#201b19" filter="url(#goo)"><use x="-26" y="-16" href="#P8"></use><use x="-21" y="30" href="#P31"></use><use x="0" y="88" href="#P18"></use><use x="-51" y="174" href="#P37"></use><use x="-40" y="500" href="#P23"></use><use x="-56" y="777" href="#P25"></use><use x="-105" y="981" href="#P34"></use><use x="-1" y="1512" href="#P8"></use><use x="18" y="1847" href="#P11"></use><use x="-83" y="2396" href="#P35"></use><use x="-615" y="2377" href="#P20"></use><use x="-670" y="2713" href="#P28"></use><use x="-690" y="3063" href="#P27"></use><use x="-766" y="3331" href="#P37"></use><use x="-769" y="3704" href="#P20"></use><use x="-738" y="4334" href="#P0"></use><use x="-679" y="4494" href="#P30"></use><use x="-483" y="4911" href="#P25"></use><use x="-428" y="5262" href="#P26"></use><use x="-446" y="5460" href="#P17"></use><use x="1" y="0" href="#P2"></use><use x="20" y="24" href="#P4"></use><use x="47" y="133" href="#P13"></use><use x="90" y="178" href="#P37"></use><use x="22" y="402" href="#P6"></use><use x="29" y="594" href="#P10"></use><use x="149" y="1153" href="#P37"></use><use x="121" y="1212" href="#P6"></use><use x="137" y="1629" href="#P16"></use><use x="208" y="2247" href="#P21"></use><use x="-242" y="2404" href="#P27"></use><use x="-316" y="2664" href="#P24"></use><use x="-498" y="2991" href="#P29"></use><use x="-522" y="3499" href="#P38"></use><use x="-365" y="4001" href="#P21"></use><use x="-292" y="4410" href="#P38"></use><use x="-350" y="4814" href="#P2"></use><use x="-286" y="5110" href="#P30"></use><use x="-98" y="5263" href="#P33"></use><use x="-169" y="5475" href="#P18"></use><use x="93" y="-30" href="#P26"></use><use x="80" y="12" href="#P23"></use><use x="107" y="146" href="#P15"></use><use x="125" y="222" href="#P28"></use><use x="239" y="492" href="#P11"></use><use x="167" y="600" href="#P14"></use><use x="269" y="857" href="#P20"></use><use x="388" y="1552" href="#P14"></use><use x="300" y="1782" href="#P1"></use><use x="549" y="2137" href="#P12"></use><use x="14" y="2240" href="#P20"></use><use x="191" y="2652" href="#P17"></use><use x="-213" y="3041" href="#P5"></use><use x="-86" y="3270" href="#P14"></use><use x="-119" y="3727" href="#P29"></use><use x="-133" y="4458" href="#P7"></use><use x="50" y="4532" href="#P7"></use><use x="-88" y="4923" href="#P37"></use><use x="20" y="5443" href="#P20"></use><use x="255" y="5635" href="#P25"></use><use x="229" y="-59" href="#P1"></use><use x="249" y="72" href="#P30"></use><use x="311" y="149" href="#P7"></use><use x="284" y="307" href="#P10"></use><use x="276" y="403" href="#P4"></use><use x="500" y="669" href="#P38"></use><use x="574" y="1130" href="#P35"></use><use x="590" y="1565" href="#P9"></use><use x="715" y="1752" href="#P10"></use><use x="531" y="1949" href="#P31"></use><use x="569" y="2000" href="#P0"></use><use x="596" y="2330" href="#P17"></use><use x="285" y="2766" href="#P26"></use><use x="172" y="3340" href="#P29"></use><use x="386" y="3584" href="#P0"></use><use x="190" y="4424" href="#P6"></use><use x="341" y="4671" href="#P28"></use><use x="388" y="4982" href="#P38"></use><use x="630" y="5462" href="#P8"></use><use x="504" y="5833" href="#P17"></use><use x="350" y="-68" href="#P19"></use><use x="338" y="63" href="#P0"></use><use x="467" y="254" href="#P10"></use><use x="431" y="308" href="#P27"></use><use x="627" y="567" href="#P34"></use><use x="802" y="963" href="#P39"></use><use x="639" y="1040" href="#P34"></use><use x="896" y="1608" href="#P29"></use><use x="959" y="2204" href="#P4"></use><use x="806" y="1734" href="#P28"></use><use x="1122" y="1918" href="#P21"></use><use x="812" y="2444" href="#P12"></use><use x="709" y="2947" href="#P38"></use><use x="946" y="3431" href="#P34"></use><use x="955" y="3795" href="#P1"></use><use x="638" y="4105" href="#P29"></use><use x="975" y="4594" href="#P1"></use><use x="958" y="5242" href="#P11"></use><use x="1022" y="5653" href="#P18"></use><use x="1092" y="5879" href="#P29"></use><use x="799" y="-137" href="#P21"></use><use x="836" y="115" href="#P6"></use><use x="824" y="197" href="#P8"></use><use x="753" y="503" href="#P5"></use><use x="1085" y="824" href="#P24"></use><use x="1037" y="950" href="#P26"></use><use x="1023" y="1374" href="#P9"></use><use x="1325" y="1891" href="#P26"></use><use x="1277" y="1654" href="#P1"></use><use x="1518" y="1864" href="#P29"></use><use x="1368" y="2166" href="#P27"></use><use x="1209" y="2519" href="#P33"></use><use x="1459" y="2857" href="#P31"></use><use x="1244" y="3165" href="#P21"></use><use x="1523" y="4026" href="#P13"></use><use x="1232" y="4508" href="#P18"></use><use x="1570" y="4977" href="#P0"></use><use x="1461" y="5039" href="#P22"></use><use x="1325" y="5419" href="#P11"></use><use x="1206" y="5810" href="#P13"></use><use x="953" y="-99" href="#P14"></use><use x="1084" y="51" href="#P20"></use><use x="1331" y="431" href="#P36"></use><use x="1017" y="555" href="#P32"></use><use x="1219" y="859" href="#P23"></use><use x="1473" y="1056" href="#P16"></use><use x="1358" y="1437" href="#P24"></use><use x="1791" y="1427" href="#P6"></use><use x="1726" y="1539" href="#P21"></use><use x="1666" y="1675" href="#P39"></use><use x="1862" y="1962" href="#P12"></use><use x="1938" y="2405" href="#P32"></use><use x="1724" y="2962" href="#P9"></use><use x="2056" y="3524" href="#P34"></use><use x="1772" y="4042" href="#P33"></use><use x="1993" y="4092" href="#P35"></use><use x="1954" y="4573" href="#P7"></use><use x="2056" y="5300" href="#P25"></use><use x="1774" y="5532" href="#P11"></use><use x="1915" y="5855" href="#P4"></use><use x="1523" y="-100" href="#P29"></use><use x="1639" y="68" href="#P10"></use><use x="1568" y="325" href="#P28"></use><use x="1706" y="697" href="#P26"></use><use x="1713" y="891" href="#P3"></use><use x="1861" y="1270" href="#P34"></use><use x="2114" y="1435" href="#P8"></use><use x="2013" y="1418" href="#P8"></use><use x="1977" y="1529" href="#P8"></use><use x="2210" y="1864" href="#P11"></use><use x="2310" y="2118" href="#P10"></use><use x="2447" y="2665" href="#P36"></use><use x="2462" y="2807" href="#P2"></use><use x="2256" y="3115" href="#P37"></use><use x="2498" y="3707" href="#P36"></use><use x="2446" y="4458" href="#P21"></use><use x="2277" y="4672" href="#P23"></use><use x="2316" y="5184" href="#P26"></use><use x="2095" y="5495" href="#P4"></use><use x="2002" y="5836" href="#P38"></use><use x="1754" y="-112" href="#P35"></use><use x="2109" y="224" href="#P2"></use><use x="2253" y="435" href="#P18"></use><use x="2058" y="647" href="#P23"></use><use x="2157" y="934" href="#P36"></use><use x="2058" y="1220" href="#P8"></use><use x="2113" y="1409" href="#P33"></use><use x="2190" y="1493" href="#P24"></use><use x="2501" y="1710" href="#P15"></use><use x="2637" y="2000" href="#P24"></use><use x="2566" y="2210" href="#P34"></use><use x="2828" y="2491" href="#P0"></use><use x="2626" y="3098" href="#P3"></use><use x="2646" y="3481" href="#P12"></use><use x="2825" y="3774" href="#P23"></use><use x="2745" y="4053" href="#P32"></use><use x="2567" y="4814" href="#P38"></use><use x="2713" y="5087" href="#P19"></use><use x="2433" y="5478" href="#P26"></use><use x="2457" y="5648" href="#P35"></use><use x="2350" y="-55" href="#P20"></use><use x="2342" y="46" href="#P13"></use><use x="2299" y="490" href="#P4"></use><use x="1851" y="493" href="#P5"></use><use x="1766" y="850" href="#P9"></use><use x="1865" y="1384" href="#P32"></use><use x="1927" y="1529" href="#P16"></use><use x="2713" y="1741" href="#P14"></use><use x="2661" y="1739" href="#P14"></use><use x="2713" y="1981" href="#P17"></use><use x="2954" y="2413" href="#P29"></use><use x="2911" y="2708" href="#P14"></use><use x="3034" y="3122" href="#P15"></use><use x="3004" y="3394" href="#P0"></use><use x="3003" y="3626" href="#P19"></use><use x="3026" y="4305" href="#P24"></use><use x="3035" y="4575" href="#P12"></use><use x="2948" y="4930" href="#P23"></use><use x="2856" y="5391" href="#P35"></use><use x="2551" y="5122" href="#P0"></use><use x="2309" y="-451" href="#P31"></use><use x="2206" y="-153" href="#P16"></use><use x="2408" y="-113" href="#P34"></use><use x="2111" y="444" href="#P6"></use><use x="2296" y="908" href="#P14"></use><use x="2130" y="1282" href="#P33"></use><use x="2221" y="1548" href="#P21"></use><use x="2257" y="2052" href="#P29"></use><use x="2882" y="1882" href="#P24"></use><use x="3188" y="2296" href="#P20"></use><use x="3231" y="2434" href="#P8"></use><use x="3168" y="2768" href="#P25"></use><use x="3313" y="3208" href="#P23"></use><use x="3407" y="3314" href="#P25"></use><use x="3314" y="3994" href="#P28"></use><use x="3003" y="4149" href="#P10"></use><use x="2933" y="4361" href="#P32"></use><use x="2913" y="4617" href="#P0"></use><use x="2881" y="5006" href="#P19"></use><use x="2993" y="5237" href="#P5"></use><use x="2678" y="-689" href="#P12"></use><use x="2580" y="-205" href="#P15"></use><use x="2742" y="20" href="#P32"></use><use x="2534" y="347" href="#P37"></use><use x="2593" y="1013" href="#P32"></use><use x="2698" y="1551" href="#P16"></use><use x="2466" y="1630" href="#P15"></use><use x="2676" y="2090" href="#P39"></use><use x="3148" y="2144" href="#P39"></use><use x="3274" y="2349" href="#P36"></use><use x="3431" y="2602" href="#P23"></use><use x="3428" y="2675" href="#P4"></use><use x="3574" y="3184" href="#P30"></use><use x="3269" y="3691" href="#P28"></use><use x="3324" y="3957" href="#P36"></use><use x="3357" y="4163" href="#P2"></use><use x="3263" y="4482" href="#P1"></use><use x="3348" y="4732" href="#P22"></use><use x="3359" y="4957" href="#P22"></use><use x="3738" y="5047" href="#P0"></use><use x="3180" y="-747" href="#P19"></use><use x="3086" y="-430" href="#P36"></use><use x="3088" y="-22" href="#P38"></use><use x="2939" y="330" href="#P11"></use><use x="3237" y="746" href="#P6"></use><use x="3295" y="1484" href="#P23"></use><use x="3284" y="1811" href="#P18"></use><use x="3239" y="2394" href="#P12"></use><use x="2977" y="2594" href="#P38"></use><use x="3378" y="2961" href="#P33"></use><use x="3516" y="2712" href="#P22"></use><use x="3628" y="3017" href="#P31"></use><use x="3619" y="3454" href="#P24"></use><use x="3625" y="3836" href="#P10"></use><use x="3820" y="4159" href="#P15"></use><use x="3620" y="4283" href="#P7"></use><use x="3635" y="4425" href="#P5"></use><use x="3964" y="4819" href="#P21"></use><use x="4069" y="4963" href="#P3"></use><use x="4086" y="5183" href="#P0"></use><use x="3543" y="-606" href="#P18"></use><use x="3536" y="-524" href="#P36"></use><use x="3408" y="-134" href="#P15"></use><use x="3350" y="183" href="#P31"></use><use x="3333" y="753" href="#P27"></use><use x="3732" y="1175" href="#P4"></use><use x="3624" y="1666" href="#P8"></use><use x="3439" y="2334" href="#P38"></use><use x="3808" y="2656" href="#P30"></use><use x="3819" y="3134" href="#P36"></use><use x="3566" y="2794" href="#P14"></use><use x="3573" y="2805" href="#P29"></use><use x="3852" y="3326" href="#P36"></use><use x="4003" y="3805" href="#P1"></use><use x="4192" y="4277" href="#P11"></use><use x="3998" y="4285" href="#P19"></use><use x="4057" y="4590" href="#P25"></use><use x="4082" y="4714" href="#P34"></use><use x="4272" y="4900" href="#P26"></use><use x="4314" y="5164" href="#P11"></use><use x="3947" y="-773" href="#P27"></use><use x="4168" y="-302" href="#P15"></use><use x="4304" y="-205" href="#P14"></use><use x="4191" y="247" href="#P24"></use><use x="3922" y="855" href="#P26"></use><use x="4185" y="1520" href="#P19"></use><use x="4207" y="1933" href="#P38"></use><use x="4340" y="2202" href="#P11"></use><use x="3862" y="2510" href="#P33"></use><use x="3876" y="2895" href="#P23"></use><use x="4230" y="3219" href="#P18"></use><use x="4119" y="2928" href="#P23"></use><use x="4065" y="3465" href="#P2"></use><use x="4131" y="3991" href="#P26"></use><use x="4334" y="4222" href="#P16"></use><use x="4299" y="4377" href="#P39"></use><use x="4463" y="4591" href="#P32"></use><use x="4571" y="4824" href="#P8"></use><use x="4450" y="4919" href="#P39"></use><use x="4624" y="5028" href="#P7"></use><use x="4310" y="-756" href="#P0"></use><use x="4580" y="-443" href="#P15"></use><use x="4640" y="-61" href="#P37"></use><use x="4409" y="295" href="#P2"></use><use x="4567" y="885" href="#P11"></use><use x="4502" y="1404" href="#P28"></use><use x="4647" y="1572" href="#P39"></use><use x="4704" y="2391" href="#P6"></use><use x="4580" y="2664" href="#P1"></use><use x="4557" y="2907" href="#P27"></use><use x="4199" y="2935" href="#P34"></use><use x="4273" y="3289" href="#P19"></use><use x="4341" y="3458" href="#P0"></use><use x="4492" y="4082" href="#P13"></use><use x="4458" y="4242" href="#P32"></use><use x="4684" y="4574" href="#P1"></use><use x="4693" y="4679" href="#P2"></use><use x="4690" y="4858" href="#P28"></use><use x="4761" y="4958" href="#P33"></use><use x="4830" y="5063" href="#P39"></use><use x="4868" y="-680" href="#P29"></use><use x="4957" y="-369" href="#P33"></use><use x="4970" y="105" href="#P24"></use><use x="5096" y="490" href="#P2"></use><use x="4876" y="940" href="#P19"></use><use x="5053" y="1301" href="#P23"></use><use x="4945" y="1652" href="#P3"></use><use x="4882" y="2201" href="#P39"></use><use x="4947" y="2498" href="#P3"></use><use x="4978" y="2931" href="#P11"></use><use x="4455" y="2807" href="#P4"></use><use x="4573" y="3158" href="#P6"></use><use x="4763" y="3831" href="#P22"></use><use x="4794" y="4117" href="#P8"></use><use x="4791" y="4440" href="#P1"></use><use x="4836" y="4540" href="#P32"></use><use x="4803" y="4815" href="#P10"></use><use x="4928" y="4916" href="#P22"></use><use x="4911" y="4991" href="#P2"></use><use x="4924" y="5044" href="#P30"></use><use x="5080" y="-634" href="#P27"></use><use x="5124" y="-145" href="#P8"></use><use x="5216" y="89" href="#P31"></use><use x="5314" y="296" href="#P35"></use><use x="5426" y="711" href="#P25"></use><use x="5373" y="1290" href="#P37"></use><use x="5244" y="1741" href="#P10"></use><use x="5456" y="2117" href="#P6"></use><use x="5266" y="2629" href="#P28"></use><use x="5207" y="2885" href="#P33"></use><use x="4904" y="2642" href="#P11"></use><use x="4842" y="3288" href="#P2"></use><use x="4798" y="3760" href="#P24"></use><use x="4927" y="3954" href="#P8"></use><use x="4973" y="4493" href="#P27"></use><use x="4951" y="4701" href="#P12"></use><use x="4938" y="4829" href="#P38"></use><use x="4960" y="4949" href="#P37"></use><use x="4993" y="4985" href="#P18"></use><use x="4994" y="5015" href="#P29"></use><use x="5385" y="-412" href="#P11"></use><use x="5552" y="-122" href="#P32"></use><use x="5587" y="134" href="#P19"></use><use x="5605" y="385" href="#P6"></use><use x="5768" y="875" href="#P23"></use><use x="5708" y="1106" href="#P3"></use><use x="5667" y="1852" href="#P1"></use><use x="5686" y="2234" href="#P9"></use><use x="5587" y="2491" href="#P25"></use><use x="5092" y="2544" href="#P12"></use><use x="5028" y="3062" href="#P39"></use><use x="5118" y="3402" href="#P5"></use><use x="4993" y="3702" href="#P5"></use><use x="5087" y="3944" href="#P20"></use><use x="5080" y="4408" href="#P29"></use><use x="5063" y="4541" href="#P30"></use><use x="5030" y="4821" href="#P17"></use><use x="5001" y="4949" href="#P17"></use><use x="5013" y="4991" href="#P36"></use><use x="5014" y="5032" href="#P28"></use></g></svg>